# Blender 3.5.1
# www.blender.org
o AleksanderInterior
v -50.000000 100.000000 0.000000
v -50.000000 -100.000000 0.000000
v 50.000000 100.000000 0.000000
v 50.000000 -100.000000 0.000000
v -50.000000 100.000000 90.000000
v -50.000000 -100.000000 90.000000
v 50.000000 100.000000 90.000000
v 50.000000 -100.000000 90.000000
v 59.999996 100.000000 0.000000
v 59.999996 -100.000000 0.000000
v 59.999992 79.999992 0.000000
v 59.999992 -79.999992 0.000000
v 59.999992 79.999992 90.000000
v 59.999992 -79.999992 90.000000
v 69.999992 100.000000 0.000000
v 69.999992 -100.000000 0.000000
v 69.999992 -79.999992 0.000000
v 69.999992 -79.999992 90.000000
v 69.999992 79.999992 0.000000
v 69.999992 79.999992 90.000000
v 59.999992 71.999992 113.000000
v 59.999992 -71.999992 113.000000
v 69.999992 -71.999992 113.000000
v 69.999992 71.999992 113.000000
v -50.000000 90.000000 113.000000
v -50.000000 -90.000000 113.000000
v 50.000000 90.000000 113.000000
v 50.000000 -90.000000 113.000000
v -50.000000 90.000000 120.000000
v -50.000000 -90.000000 120.000000
v 50.000000 90.000000 120.000000
v 50.000000 -90.000000 120.000000
v 59.999992 71.999992 120.000000
v 59.999992 -71.999992 120.000000
vn -0.0000 -0.0000 1.0000
vn -0.0000 1.0000 -0.0000
vn -0.0000 -1.0000 -0.0000
vn -0.8944 -0.4472 -0.0000
vn -0.8944 0.4472 -0.0000
vn -1.0000 -0.0000 -0.0000
vn -0.0000 -0.9445 -0.3285
vn -0.0000 0.9445 -0.3285
vn -0.0000 0.9171 -0.3987
vn -0.0000 -0.9171 -0.3987
vn -0.8780 0.4390 -0.1909
vn -0.8780 -0.4390 -0.1909
vn -0.0000 -0.0000 -1.0000
vn -0.8742 0.4856 -0.0000
vn -0.8742 -0.4856 -0.0000
vn -0.8619 0.4789 -0.1666
vn -0.8619 -0.4789 -0.1666
vt 0.000000 0.000000
vt 1.000000 0.000000
vt 0.000000 1.000000
vt 1.000000 1.000000
vt 0.000000 0.000000
vt 1.000000 0.000000
vt 0.000000 1.000000
vt 1.000000 1.000000
vt 0.000000 1.000000
vt 1.000000 1.000000
vt 0.000000 1.000000
vt 1.000000 1.000000
vt 0.000000 1.000000
vt 1.000000 1.000000
vt 0.000000 1.000000
vt 1.000000 1.000000
vt 1.000000 1.000000
vt 1.000000 1.000000
vt 0.000000 1.000000
vt 0.000000 1.000000
vt 0.000000 1.000000
vt 1.000000 1.000000
vt 1.000000 1.000000
vt 0.000000 1.000000
vt 0.000000 0.000000
vt 1.000000 0.000000
vt 0.000000 1.000000
vt 1.000000 1.000000
vt 0.000000 0.000000
vt 1.000000 0.000000
vt 0.000000 1.000000
vt 1.000000 1.000000
vt 0.000000 1.000000
vt 1.000000 1.000000
s 0
f 2/2/1 3/3/1 1/1/1
f 2/2/2 8/8/2 4/4/2
f 3/3/3 5/5/3 1/1/3
f 4/4/1 9/9/1 3/3/1
f 3/3/4 13/13/4 7/7/4
f 8/8/5 12/12/5 4/4/5
f 10/10/1 15/15/1 9/9/1
f 14/14/2 17/17/2 12/12/2
f 11/11/3 20/20/3 13/13/3
f 20/20/6 17/17/6 18/18/6
f 20/20/7 21/21/7 13/13/7
f 14/14/8 23/23/8 18/18/8
f 23/23/6 20/20/6 18/18/6
f 6/6/9 28/28/9 8/8/9
f 7/7/10 25/25/10 5/5/10
f 28/28/11 14/14/11 8/8/11
f 13/13/12 27/27/12 7/7/12
f 21/21/13 23/23/13 22/22/13
f 26/26/2 32/32/2 28/28/2
f 27/27/3 29/29/3 25/25/3
f 22/22/6 33/33/6 21/21/6
f 28/28/14 34/34/14 22/22/14
f 33/33/15 27/27/15 21/21/15
f 32/32/13 29/29/13 31/31/13
f 32/32/13 33/33/13 34/34/13
f 2/2/1 4/4/1 3/3/1
f 2/2/2 6/6/2 8/8/2
f 3/3/3 7/7/3 5/5/3
f 4/4/1 10/10/1 9/9/1
f 3/3/4 11/11/4 13/13/4
f 8/8/5 14/14/5 12/12/5
f 10/10/1 16/16/1 15/15/1
f 14/14/2 18/18/2 17/17/2
f 11/11/3 19/19/3 20/20/3
f 20/20/6 19/19/6 17/17/6
f 20/20/7 24/24/7 21/21/7
f 14/14/8 22/22/8 23/23/8
f 23/23/6 24/24/6 20/20/6
f 6/6/9 26/26/9 28/28/9
f 7/7/10 27/27/10 25/25/10
f 28/28/16 22/22/16 14/14/16
f 13/13/17 21/21/17 27/27/17
f 21/21/13 24/24/13 23/23/13
f 26/26/2 30/30/2 32/32/2
f 27/27/3 31/31/3 29/29/3
f 22/22/6 34/34/6 33/33/6
f 28/28/14 32/32/14 34/34/14
f 33/33/15 31/31/15 27/27/15
f 32/32/13 30/30/13 29/29/13
f 32/32/13 31/31/13 33/33/13
