# Blender 3.5.1
# www.blender.org
o AleksanderInterior
v 100.000000 50.000000 0.000000
v -100.000000 50.000000 0.000000
v 100.000000 -50.000000 0.000000
v -100.000000 -50.000000 0.000000
v 100.000000 50.000000 90.000000
v -100.000000 50.000000 90.000000
v 100.000000 -50.000000 90.000000
v -100.000000 -50.000000 90.000000
v 79.999992 -59.999992 0.000000
v -79.999992 -59.999992 0.000000
v 79.999992 -59.999992 90.000000
v -79.999992 -59.999992 90.000000
v -79.999992 -69.999992 0.000000
v -79.999992 -69.999992 90.000000
v 79.999992 -69.999992 0.000000
v 79.999992 -69.999992 90.000000
v 71.999992 -59.999992 113.000000
v -71.999992 -59.999992 113.000000
v -71.999992 -69.999992 113.000000
v 71.999992 -69.999992 113.000000
v 90.000000 50.000000 113.000000
v -90.000000 50.000000 113.000000
v 90.000000 -50.000000 113.000000
v -90.000000 -50.000000 113.000000
v 90.000000 50.000000 120.000000
v -90.000000 50.000000 120.000000
v 90.000000 -50.000000 120.000000
v -90.000000 -50.000000 120.000000
v 71.999992 -59.999992 120.000000
v -71.999992 -59.999992 120.000000
v 100.000000 180.000000 0.000000
v -100.000000 180.000000 0.000000
v 100.000000 180.000000 90.000000
v -100.000000 180.000000 90.000000
v 90.000000 180.000000 113.000000
v -90.000000 180.000000 113.000000
v 90.000000 180.000000 120.000000
v -90.000000 180.000000 120.000000
v 80.000000 190.000000 0.000000
v -80.000000 190.000000 0.000000
v 80.000000 190.000000 90.000000
v -80.000000 190.000000 90.000000
v 70.000000 190.000000 113.000000
v -70.000000 190.000000 113.000000
v 70.000000 190.000000 120.000000
v -70.000000 190.000000 120.000000
v 80.000000 209.999985 0.000000
v -80.000000 209.999985 0.000000
v 80.000000 209.999985 90.000000
v -80.000000 209.999985 90.000000
v 70.000000 209.999985 113.000000
v -70.000000 209.999985 113.000000
v 100.000000 219.999985 0.000000
v -100.000000 219.999985 0.000000
v 100.000000 219.999985 90.000000
v -100.000000 219.999985 90.000000
v 90.000000 219.999985 113.000000
v -90.000000 219.999985 113.000000
v 150.000000 219.999985 0.000000
v 150.000000 219.999985 90.000000
v 140.000000 219.999985 113.000000
v -150.000000 219.999985 0.000000
v -150.000000 219.999985 90.000000
v -140.000000 219.999985 113.000000
v 100.000000 269.999969 0.000000
v -100.000000 269.999969 0.000000
v 150.000000 269.999969 0.000000
v -150.000000 269.999969 0.000000
v 90.000000 219.999985 121.000000
v -90.000000 219.999985 121.000000
v 140.000000 219.999985 121.000000
v -140.000000 219.999985 121.000000
v 110.606598 50.000000 -0.212132
v -110.606598 50.000000 -0.212132
v 110.152580 -56.274639 -0.181719
v -110.152580 -56.274639 -0.181719
v 114.999855 50.000000 90.001305
v -114.999855 50.000000 90.001305
v 112.806473 -57.809685 90.001083
v -112.806473 -57.809685 90.001083
v 86.793587 -64.198662 -0.253944
v -86.793587 -64.198662 -0.253944
v 92.796051 -67.826797 90.000931
v -92.796051 -67.826797 90.000931
v -88.660255 -78.660248 -0.173205
v -90.618256 -80.594864 90.000740
v 88.660255 -78.660248 -0.173205
v 90.618256 -80.594864 90.000740
v 80.299316 -71.730850 113.086044
v -80.299316 -71.730850 113.086044
v -80.627327 -78.665749 113.173752
v 80.627327 -78.665749 113.173752
v 104.999855 50.000000 113.001305
v -104.999855 50.000000 113.001305
v 102.879227 -57.689125 113.001076
v -102.879227 -57.689125 113.001076
v 100.606598 50.000000 120.212135
v -100.606598 50.000000 120.212135
v 100.256073 -56.034714 120.182640
v -100.256073 -56.034714 120.182640
v 74.843895 -70.975006 120.196426
v -74.843895 -70.975006 120.196426
v 110.152580 186.274643 -0.181719
v -110.152580 186.274643 -0.181719
v 112.765671 187.876190 90.001106
v -112.765671 187.876190 90.001106
v 102.753601 187.895721 113.001106
v -102.753601 187.895721 113.001106
v 100.152573 186.274643 120.181717
v -100.152573 186.274643 120.181717
v 86.793587 194.198669 -0.253944
v -86.793587 194.198669 -0.253944
v 92.753616 197.895721 90.001106
v -92.753616 197.895721 90.001106
v 78.073601 201.880676 113.086411
v -78.073601 201.880676 113.086411
v 72.592514 200.982071 120.197662
v -72.592514 200.982071 120.197662
v 86.793587 205.801315 -0.253944
v -86.793587 205.801315 -0.253944
v 92.753616 202.104263 90.001106
v -92.753616 202.104263 90.001106
v 76.765236 205.833084 113.254456
v -76.765236 205.833084 113.254456
v 102.229057 210.557510 -0.228798
v -102.229057 210.557510 -0.228798
v 103.437248 205.399139 90.000298
v -103.437248 205.399139 90.000298
v 91.715111 205.142136 113.022827
v -91.715111 205.142136 113.022827
v 150.000000 209.393387 -0.212132
v 150.000000 204.999969 90.000000
v 140.000000 204.999969 113.000000
v -150.000000 209.393387 -0.212132
v -150.000000 204.999969 90.000000
v -140.000000 204.999969 113.000000
v 100.000000 269.999969 -0.300000
v -100.000000 269.999969 -0.300000
v 150.000000 269.999969 -0.300000
v -150.000000 269.999969 -0.300000
v 90.000000 204.999969 121.000000
v -90.000000 204.999969 121.000000
v 140.000000 204.999969 121.000000
v -140.000000 204.999969 121.000000
vn -0.0000 -0.0000 1.0000
vn 1.0000 -0.0000 -0.0000
vn -1.0000 -0.0000 -0.0000
vn -0.4472 0.8944 -0.0000
vn 0.4472 0.8944 -0.0000
vn -0.0000 1.0000 -0.0000
vn -0.9445 -0.0000 -0.3285
vn 0.9445 -0.0000 -0.3285
vn 0.9171 -0.0000 -0.3987
vn -0.9171 -0.0000 -0.3987
vn 0.4390 0.8780 -0.1909
vn -0.4390 0.8780 -0.1909
vn -0.0000 -0.0000 -1.0000
vn 0.4856 0.8742 -0.0000
vn -0.4856 0.8742 -0.0000
vn 0.4472 -0.8944 -0.0000
vn 0.4390 -0.8780 -0.1909
vn -0.4472 -0.8944 -0.0000
vn -0.4390 -0.8780 -0.1909
vn -0.0000 -1.0000 -0.0000
vn -0.0000 -0.0003 -1.0000
vn -0.9988 -0.0043 -0.0486
vn 0.9988 -0.0043 -0.0486
vn -0.0000 0.0091 -1.0000
vn 0.4475 -0.8939 -0.0284
vn -0.4475 -0.8939 -0.0284
vn -0.0000 -0.0056 -1.0000
vn -0.9900 0.1274 -0.0607
vn 0.9900 0.1274 -0.0607
vn -0.0000 -0.9998 -0.0214
vn 0.8799 -0.1501 0.4509
vn -0.8799 -0.1501 0.4509
vn -0.0000 -0.9966 0.0830
vn -0.9169 -0.0187 0.3987
vn 0.9169 -0.0187 0.3987
vn -0.4391 -0.8772 0.1941
vn 0.4391 -0.8772 0.1941
vn -0.0000 0.0126 0.9999
vn -0.9378 -0.0185 0.3468
vn 0.9378 -0.0185 0.3468
vn -0.0000 -0.9944 0.1057
vn -0.4932 -0.7909 0.3623
vn 0.4570 -0.7769 0.4332
vn -0.0000 -0.0003 1.0000
vn -0.0000 0.0009 1.0000
vn -0.9988 0.0033 -0.0486
vn -0.9170 0.0149 0.3987
vn -0.8540 0.0030 0.5203
vn -0.0000 0.0002 1.0000
vn -0.0000 0.0002 -1.0000
vn 0.9170 0.0149 0.3987
vn 0.9988 0.0033 -0.0486
vn 0.8540 0.0030 0.5203
vn -0.0000 -0.0011 1.0000
vn -0.4625 0.8141 0.3513
vn -0.4395 0.8778 0.1906
vn -0.4475 0.8938 -0.0288
vn 0.4625 0.8141 0.3513
vn 0.4395 0.8778 0.1906
vn 0.4475 0.8938 -0.0288
vn -0.0000 -0.0091 -1.0000
vn -0.0000 0.9921 0.1254
vn 0.8438 -0.0000 0.5366
vn 0.9978 -0.0000 -0.0659
vn -0.0000 -0.0425 0.9991
vn -0.8438 -0.0000 0.5366
vn -0.9978 -0.0000 -0.0659
vn -0.0000 0.3179 -0.9481
vn 0.0438 -0.9907 0.1288
vn -0.2941 -0.9540 -0.0585
vn -0.0438 -0.9907 0.1288
vn 0.2941 -0.9540 -0.0585
vn -0.0000 0.0053 -1.0000
vn -0.0030 -0.9999 -0.0127
vn -0.0243 -0.9981 -0.0567
vn 0.0030 -0.9999 -0.0127
vn 0.0243 -0.9981 -0.0567
vn -0.0003 -0.0014 -1.0000
vn 0.0003 -0.0014 -1.0000
vn -0.0000 -0.0012 -1.0000
vn 0.0029 -1.0000 -0.0000
vn -0.0029 -1.0000 -0.0000
vn -0.0000 -0.9998 -0.0178
vn 0.9171 -0.0000 0.3987
vn -0.9171 -0.0000 0.3987
vn 0.4789 0.8619 -0.1666
vn -0.4789 0.8619 -0.1666
vn -0.9994 -0.0203 -0.0298
vn 0.9994 -0.0203 -0.0298
vn 0.3208 -0.9453 -0.0593
vn -0.3208 -0.9453 -0.0593
vn -0.9855 -0.1681 -0.0250
vn 0.9855 -0.1681 -0.0250
vn 0.9187 0.0484 0.3920
vn -0.9187 0.0484 0.3920
vn -0.9179 -0.0181 0.3963
vn 0.9179 -0.0181 0.3963
vn -0.5232 -0.8405 0.1411
vn 0.5232 -0.8405 0.1411
vn -0.8540 -0.0030 0.5203
vn 0.8540 -0.0030 0.5203
vn -0.4570 -0.7769 0.4332
vn 0.4932 -0.7909 0.3623
vn -0.9994 0.0162 -0.0292
vn -0.9168 0.0149 0.3991
vn -0.9390 0.0153 0.3436
vn 0.9168 0.0149 0.3991
vn 0.9994 0.0162 -0.0292
vn 0.9390 0.0153 0.3436
vn -0.4255 0.7970 0.4287
vn -0.4870 0.8584 0.1615
vn -0.3208 0.9452 -0.0599
vn 0.4255 0.7970 0.4287
vn 0.4870 0.8584 0.1615
vn 0.3208 0.9452 -0.0599
vn 0.8164 0.2481 0.5215
vn -0.8164 0.2481 0.5215
vn -0.2919 -0.9464 0.1381
vn -0.2942 -0.9540 -0.0585
vn 0.2919 -0.9464 0.1381
vn 0.2942 -0.9540 -0.0585
vn -0.0086 -1.0000 -0.0037
vn -0.0086 -0.9988 -0.0486
vn 0.0086 -1.0000 -0.0037
vn 0.0086 -0.9988 -0.0486
vt 0.060000 0.000000
vt 0.096667 0.033333
vt 0.096667 0.000000
vt 0.093334 0.000000
vt 0.113334 0.033333
vt 0.076667 0.000000
vt 0.000000 0.000001
vt 0.076667 0.000000
vt 0.033333 0.000001
vt 0.113334 0.000000
vt 0.060000 0.749995
vt 0.093333 0.749995
vt 0.000000 0.750000
vt 0.076667 0.749995
vt 0.076667 0.749995
vt 0.033333 0.750000
vt 0.003333 0.000000
vt 0.095000 0.000000
vt 0.030000 0.000000
vt 0.095000 0.000000
vt 0.095000 0.749996
vt 0.003333 0.749999
vt 0.095000 0.749996
vt 0.030000 0.749999
vt 0.093334 0.000000
vt 0.060000 0.000000
vt 0.060000 0.749999
vt 0.093334 0.749996
vt 0.096667 0.000000
vt 0.033333 0.000000
vt 0.096667 0.749996
vt 0.033333 0.749999
vt 0.095000 0.941665
vt 0.004667 0.941665
vt 0.096667 0.063333
vt 0.096667 0.087333
vt 0.095000 0.941665
vt 0.028667 0.941665
vt 0.093334 0.941665
vt 0.058667 0.941665
vt 0.098334 0.087333
vt 0.096667 0.941665
vt 0.034667 0.941665
vt 0.098334 0.063333
vt 0.060000 0.941666
vt 0.093333 0.941666
vt 0.076667 0.941666
vt 0.001667 0.941667
vt 0.076667 0.941666
vt 0.031667 0.941667
vt 0.096667 0.033333
vt 0.060000 0.999999
vt 0.093333 0.999999
vt 0.096667 0.063333
vt 0.076667 0.999999
vt 0.001667 1.000000
vt 0.113334 0.033333
vt 0.076667 0.999999
vt 0.031667 1.000000
vt 0.113334 0.063333
vt 0.004667 0.999999
vt 0.115000 0.036333
vt 0.115000 0.060333
vt 0.028667 0.999999
vt 0.060000 0.000000
vt 0.096667 0.033333
vt 0.096667 0.000000
vt 0.093334 0.000000
vt 0.060000 0.749995
vt 0.093333 0.749995
vt 0.060000 0.941666
vt 0.093333 0.941666
vt 0.096667 0.033333
vt 0.060000 0.999999
vt 0.093333 0.999999
vt 0.096667 0.063333
vt 0.060000 0.000000
vt 0.096667 0.033333
vt 0.096667 0.000000
vt 0.093334 0.000000
vt 0.060000 0.749995
vt 0.093333 0.749995
vt 0.060000 0.941666
vt 0.093333 0.941666
vt 0.096667 0.033333
vt 0.060000 0.999999
vt 0.093333 0.999999
vt 0.096667 0.063333
vt 0.060000 0.000000
vt 0.096667 0.033333
vt 0.096667 0.000000
vt 0.093334 0.000000
vt 0.060000 0.749995
vt 0.093333 0.749995
vt 0.060000 0.941666
vt 0.093333 0.941666
vt 0.060000 0.000000
vt 0.096667 0.033333
vt 0.096667 0.000000
vt 0.093334 0.000000
vt 0.060000 0.749995
vt 0.093333 0.749995
vt 0.060000 0.941666
vt 0.093333 0.941666
vt 0.060000 0.000000
vt 0.060000 0.749995
vt 0.060000 0.941666
vt 0.093334 0.000000
vt 0.093333 0.749995
vt 0.093333 0.941666
vt 0.060000 0.000000
vt 0.096667 0.033333
vt 0.096667 0.000000
vt 0.093334 0.000000
vt 0.060000 0.000000
vt 0.093334 0.000000
vt 0.060000 0.941666
vt 0.093333 0.941666
vt 0.060000 0.941666
vt 0.093333 0.941666
vt 0.060000 0.000000
vt 0.096667 0.033333
vt 0.093334 0.000000
vt 0.096667 0.000000
vt 0.113334 0.033333
vt 0.076667 0.000000
vt 0.000000 0.000001
vt 0.113334 0.000000
vt 0.076667 0.000000
vt 0.033333 0.000001
vt 0.060000 0.749995
vt 0.093333 0.749995
vt 0.000000 0.750000
vt 0.076667 0.749995
vt 0.033333 0.750000
vt 0.076667 0.749995
vt 0.095000 0.000000
vt 0.003333 0.000000
vt 0.030000 0.000000
vt 0.095000 0.000000
vt 0.095000 0.749996
vt 0.003333 0.749999
vt 0.095000 0.749996
vt 0.030000 0.749999
vt 0.093334 0.000000
vt 0.060000 0.000000
vt 0.060000 0.749999
vt 0.093334 0.749996
vt 0.096667 0.000000
vt 0.033333 0.000000
vt 0.096667 0.749996
vt 0.033333 0.749999
vt 0.095000 0.941665
vt 0.096667 0.063333
vt 0.004667 0.941665
vt 0.096667 0.087333
vt 0.095000 0.941665
vt 0.028667 0.941665
vt 0.093334 0.941665
vt 0.058667 0.941665
vt 0.098334 0.087333
vt 0.096667 0.941665
vt 0.034667 0.941665
vt 0.098334 0.063333
vt 0.060000 0.941666
vt 0.093333 0.941666
vt 0.076667 0.941666
vt 0.001667 0.941667
vt 0.076667 0.941666
vt 0.031667 0.941667
vt 0.060000 0.999999
vt 0.096667 0.033333
vt 0.093333 0.999999
vt 0.096667 0.063333
vt 0.076667 0.999999
vt 0.001667 1.000000
vt 0.113334 0.033333
vt 0.076667 0.999999
vt 0.031667 1.000000
vt 0.113334 0.063333
vt 0.004667 0.999999
vt 0.115000 0.036333
vt 0.115000 0.060333
vt 0.028667 0.999999
vt 0.060000 0.000000
vt 0.096667 0.033333
vt 0.096667 0.000000
vt 0.093334 0.000000
vt 0.060000 0.749995
vt 0.093333 0.749995
vt 0.060000 0.941666
vt 0.093333 0.941666
vt 0.096667 0.033333
vt 0.060000 0.999999
vt 0.096667 0.063333
vt 0.093333 0.999999
vt 0.060000 0.000000
vt 0.096667 0.033333
vt 0.096667 0.000000
vt 0.093334 0.000000
vt 0.060000 0.749995
vt 0.093333 0.749995
vt 0.060000 0.941666
vt 0.093333 0.941666
vt 0.096667 0.033333
vt 0.060000 0.999999
vt 0.093333 0.999999
vt 0.096667 0.063333
vt 0.060000 0.000000
vt 0.096667 0.033333
vt 0.096667 0.000000
vt 0.093334 0.000000
vt 0.060000 0.749995
vt 0.093333 0.749995
vt 0.060000 0.941666
vt 0.093333 0.941666
vt 0.060000 0.000000
vt 0.096667 0.033333
vt 0.096667 0.000000
vt 0.093334 0.000000
vt 0.060000 0.749995
vt 0.093333 0.749995
vt 0.060000 0.941666
vt 0.093333 0.941666
vt 0.060000 0.000000
vt 0.060000 0.749995
vt 0.060000 0.941666
vt 0.093334 0.000000
vt 0.093333 0.749995
vt 0.093333 0.941666
vt 0.096667 0.033333
vt 0.060000 0.000000
vt 0.096667 0.000000
vt 0.093334 0.000000
vt 0.060000 0.000000
vt 0.093334 0.000000
vt 0.060000 0.941666
vt 0.093333 0.941666
vt 0.060000 0.941666
vt 0.093333 0.941666
s 0
f 2/3/1 3/5/1 1/2/1
f 2/4/2 8/15/2 4/8/2
f 3/6/3 5/11/3 1/1/3
f 10/19/1 3/7/1 4/9/1
f 3/7/4 11/22/4 7/13/4
f 8/16/5 10/19/5 4/9/5
f 10/20/1 15/29/1 9/18/1
f 12/23/2 13/25/2 10/20/2
f 9/18/3 16/31/3 11/21/3
f 16/32/6 13/26/6 14/27/6
f 16/31/7 17/33/7 11/21/7
f 12/23/8 19/39/8 14/28/8
f 19/40/6 16/32/6 14/27/6
f 6/12/9 24/49/9 8/15/9
f 7/14/10 21/45/10 5/11/10
f 24/50/11 12/24/11 8/16/11
f 11/22/12 23/48/12 7/13/12
f 17/35/13 19/41/13 18/36/13
f 22/46/2 28/58/2 24/49/2
f 23/47/3 25/52/3 21/45/3
f 18/38/6 29/61/6 17/34/6
f 24/50/14 30/64/14 18/38/14
f 29/61/15 23/48/15 17/34/15
f 28/60/13 25/51/13 27/57/13
f 28/60/13 29/62/13 30/63/13
f 2/4/2 34/70/2 6/12/2
f 6/12/9 36/72/9 22/46/9
f 22/46/2 38/75/2 26/53/2
f 26/54/13 37/73/13 25/51/13
f 1/2/1 32/67/1 2/3/1
f 21/45/10 33/69/10 5/11/10
f 5/11/3 31/65/3 1/1/3
f 25/52/3 35/71/3 21/45/3
f 38/76/13 45/85/13 37/73/13
f 36/72/16 46/87/16 38/75/16
f 36/72/17 42/82/17 44/84/17
f 32/68/16 42/82/16 34/70/16
f 37/74/18 43/83/18 35/71/18
f 35/71/19 41/81/19 33/69/19
f 33/69/18 39/77/18 31/65/18
f 31/66/1 40/79/1 32/67/1
f 43/83/20 46/88/20 44/84/20
f 43/83/10 49/93/10 41/81/10
f 41/81/3 47/89/3 39/77/3
f 39/78/1 48/91/1 40/79/1
f 44/84/13 51/95/13 43/83/13
f 42/82/9 52/96/9 44/84/9
f 40/80/2 50/94/2 42/82/2
f 51/95/13 58/104/13 57/103/13
f 50/94/11 58/104/11 52/96/11
f 48/92/5 56/102/5 50/94/5
f 49/93/12 57/103/12 55/101/12
f 49/93/4 53/97/4 47/89/4
f 47/90/1 54/99/1 48/91/1
f 55/101/6 61/107/6 60/106/6
f 55/101/6 59/105/6 53/97/6
f 56/102/6 64/110/6 58/104/6
f 54/100/6 63/109/6 56/102/6
f 54/100/1 68/116/1 62/108/1
f 59/105/1 65/111/1 53/97/1
f 53/98/1 66/113/1 54/99/1
f 64/110/6 70/118/6 58/104/6
f 57/103/6 71/119/6 61/107/6
f 58/104/6 69/117/6 57/103/6
f 75/125/21 74/124/21 73/122/21
f 76/129/22 78/132/22 74/123/22
f 77/131/23 75/126/23 73/121/23
f 75/127/24 82/139/24 76/130/24
f 83/142/25 75/127/25 79/133/25
f 76/130/26 84/144/26 80/135/26
f 87/149/27 82/140/27 81/137/27
f 85/145/28 84/143/28 82/140/28
f 83/141/29 87/149/29 81/137/29
f 85/146/30 88/152/30 86/147/30
f 89/153/31 88/151/31 83/141/31
f 86/148/32 90/157/32 84/143/32
f 88/152/33 91/160/33 86/147/33
f 80/136/34 94/166/34 78/132/34
f 93/165/35 79/134/35 77/131/35
f 84/144/36 96/170/36 80/135/36
f 95/168/37 83/142/37 79/133/37
f 91/161/38 89/154/38 90/156/38
f 100/178/39 94/166/39 96/169/39
f 93/165/40 99/175/40 95/167/40
f 101/181/41 90/158/41 89/155/41
f 90/158/42 100/179/42 96/170/42
f 89/155/43 99/176/43 101/181/43
f 97/172/44 100/180/44 99/177/44
f 101/182/45 100/180/45 102/183/45
f 78/132/46 104/188/46 74/123/46
f 94/166/47 106/190/47 78/132/47
f 110/196/48 94/166/48 98/173/48
f 109/193/49 98/174/49 97/172/49
f 104/187/50 73/122/50 74/124/50
f 105/189/51 93/165/51 77/131/51
f 103/185/52 77/131/52 73/121/52
f 93/165/53 109/194/53 97/171/53
f 117/205/54 110/195/54 109/193/54
f 110/196/55 116/204/55 108/192/55
f 108/192/56 114/202/56 106/190/56
f 114/202/57 104/188/57 106/190/57
f 115/203/58 109/194/58 107/191/58
f 113/201/59 107/191/59 105/189/59
f 103/185/60 113/201/60 105/189/60
f 112/199/61 103/186/61 104/187/61
f 118/208/62 115/203/62 116/204/62
f 121/213/63 115/203/63 113/201/63
f 119/209/64 113/201/64 111/197/64
f 120/211/13 111/198/13 112/199/13
f 123/215/65 116/204/65 115/203/65
f 116/204/66 122/214/66 114/202/66
f 122/214/67 112/200/67 114/202/67
f 129/223/68 124/216/68 123/215/68
f 130/224/69 122/214/69 124/216/69
f 122/214/70 126/220/70 120/212/70
f 121/213/71 129/223/71 123/215/71
f 125/217/72 121/213/72 119/209/72
f 126/219/73 119/210/73 120/211/73
f 127/221/74 133/227/74 129/223/74
f 131/225/75 127/221/75 125/217/75
f 136/230/76 128/222/76 130/224/76
f 128/222/77 134/228/77 126/220/77
f 140/236/78 126/220/78 134/228/78
f 125/217/79 139/235/79 131/225/79
f 138/233/80 125/218/80 126/219/80
f 130/224/81 144/240/81 136/230/81
f 143/239/82 129/223/82 133/227/82
f 141/237/83 130/224/83 129/223/83
f 59/105/2 132/226/2 131/225/2
f 61/107/84 132/226/84 60/106/84
f 62/108/3 135/229/3 63/109/3
f 63/109/85 136/230/85 64/110/85
f 65/112/6 138/233/6 66/113/6
f 67/115/6 137/232/6 65/111/6
f 66/114/6 140/236/6 68/116/6
f 62/108/3 140/236/3 134/228/3
f 59/105/2 139/235/2 67/115/2
f 70/118/1 141/237/1 69/117/1
f 69/117/1 143/239/1 71/119/1
f 72/120/1 142/238/1 70/118/1
f 64/110/3 144/240/3 72/120/3
f 71/119/2 133/227/2 61/107/2
f 2/3/1 4/10/1 3/5/1
f 2/4/2 6/12/2 8/15/2
f 3/6/3 7/14/3 5/11/3
f 10/19/1 9/17/1 3/7/1
f 3/7/4 9/17/4 11/22/4
f 8/16/5 12/24/5 10/19/5
f 10/20/1 13/26/1 15/29/1
f 12/23/2 14/28/2 13/25/2
f 9/18/3 15/29/3 16/31/3
f 16/32/6 15/30/6 13/26/6
f 16/31/7 20/42/7 17/33/7
f 12/23/8 18/37/8 19/39/8
f 19/40/6 20/43/6 16/32/6
f 6/12/9 22/46/9 24/49/9
f 7/14/10 23/47/10 21/45/10
f 24/50/86 18/38/86 12/24/86
f 11/22/87 17/34/87 23/48/87
f 17/35/13 20/44/13 19/41/13
f 22/46/2 26/53/2 28/58/2
f 23/47/3 27/55/3 25/52/3
f 18/38/6 30/64/6 29/61/6
f 24/50/14 28/59/14 30/64/14
f 29/61/15 27/56/15 23/48/15
f 28/60/13 26/54/13 25/51/13
f 28/60/13 27/57/13 29/62/13
f 2/4/2 32/68/2 34/70/2
f 6/12/9 34/70/9 36/72/9
f 22/46/2 36/72/2 38/75/2
f 26/54/13 38/76/13 37/73/13
f 1/2/1 31/66/1 32/67/1
f 21/45/10 35/71/10 33/69/10
f 5/11/3 33/69/3 31/65/3
f 25/52/3 37/74/3 35/71/3
f 38/76/13 46/88/13 45/85/13
f 36/72/16 44/84/16 46/87/16
f 36/72/17 34/70/17 42/82/17
f 32/68/16 40/80/16 42/82/16
f 37/74/18 45/86/18 43/83/18
f 35/71/19 43/83/19 41/81/19
f 33/69/18 41/81/18 39/77/18
f 31/66/1 39/78/1 40/79/1
f 43/83/20 45/86/20 46/88/20
f 43/83/10 51/95/10 49/93/10
f 41/81/3 49/93/3 47/89/3
f 39/78/1 47/90/1 48/91/1
f 44/84/13 52/96/13 51/95/13
f 42/82/9 50/94/9 52/96/9
f 40/80/2 48/92/2 50/94/2
f 51/95/13 52/96/13 58/104/13
f 50/94/11 56/102/11 58/104/11
f 48/92/5 54/100/5 56/102/5
f 49/93/12 51/95/12 57/103/12
f 49/93/4 55/101/4 53/97/4
f 47/90/1 53/98/1 54/99/1
f 55/101/6 57/103/6 61/107/6
f 55/101/6 60/106/6 59/105/6
f 56/102/6 63/109/6 64/110/6
f 54/100/6 62/108/6 63/109/6
f 54/100/1 66/114/1 68/116/1
f 59/105/1 67/115/1 65/111/1
f 53/98/1 65/112/1 66/113/1
f 64/110/6 72/120/6 70/118/6
f 57/103/6 69/117/6 71/119/6
f 58/104/6 70/118/6 69/117/6
f 75/125/21 76/128/21 74/124/21
f 76/129/88 80/136/88 78/132/88
f 77/131/89 79/134/89 75/126/89
f 75/127/24 81/138/24 82/139/24
f 83/142/90 81/138/90 75/127/90
f 76/130/91 82/139/91 84/144/91
f 87/149/27 85/146/27 82/140/27
f 85/145/92 86/148/92 84/143/92
f 83/141/93 88/151/93 87/149/93
f 85/146/30 87/150/30 88/152/30
f 89/153/94 92/162/94 88/151/94
f 86/148/95 91/159/95 90/157/95
f 88/152/33 92/163/33 91/160/33
f 80/136/96 96/169/96 94/166/96
f 93/165/97 95/167/97 79/134/97
f 84/144/98 90/158/98 96/170/98
f 95/168/99 89/155/99 83/142/99
f 91/161/38 92/164/38 89/154/38
f 100/178/100 98/173/100 94/166/100
f 93/165/101 97/171/101 99/175/101
f 101/181/41 102/184/41 90/158/41
f 90/158/102 102/184/102 100/179/102
f 89/155/103 95/168/103 99/176/103
f 97/172/44 98/174/44 100/180/44
f 101/182/45 99/177/45 100/180/45
f 78/132/104 106/190/104 104/188/104
f 94/166/105 108/192/105 106/190/105
f 110/196/106 108/192/106 94/166/106
f 109/193/49 110/195/49 98/174/49
f 104/187/50 103/186/50 73/122/50
f 105/189/107 107/191/107 93/165/107
f 103/185/108 105/189/108 77/131/108
f 93/165/109 107/191/109 109/194/109
f 117/205/54 118/208/54 110/195/54
f 110/196/110 118/207/110 116/204/110
f 108/192/111 116/204/111 114/202/111
f 114/202/112 112/200/112 104/188/112
f 115/203/113 117/206/113 109/194/113
f 113/201/114 115/203/114 107/191/114
f 103/185/115 111/197/115 113/201/115
f 112/199/61 111/198/61 103/186/61
f 118/208/62 117/206/62 115/203/62
f 121/213/116 123/215/116 115/203/116
f 119/209/64 121/213/64 113/201/64
f 120/211/13 119/210/13 111/198/13
f 123/215/65 124/216/65 116/204/65
f 116/204/117 124/216/117 122/214/117
f 122/214/67 120/212/67 112/200/67
f 129/223/68 130/224/68 124/216/68
f 130/224/118 128/222/118 122/214/118
f 122/214/119 128/222/119 126/220/119
f 121/213/120 127/221/120 129/223/120
f 125/217/121 127/221/121 121/213/121
f 126/219/73 125/218/73 119/210/73
f 127/221/122 132/226/122 133/227/122
f 131/225/123 132/226/123 127/221/123
f 136/230/124 135/229/124 128/222/124
f 128/222/125 135/229/125 134/228/125
f 140/236/80 138/234/80 126/220/80
f 125/217/80 137/232/80 139/235/80
f 138/233/80 137/231/80 125/218/80
f 130/224/83 142/238/83 144/240/83
f 143/239/83 141/237/83 129/223/83
f 141/237/83 142/238/83 130/224/83
f 59/105/2 60/106/2 132/226/2
f 61/107/84 133/227/84 132/226/84
f 62/108/3 134/228/3 135/229/3
f 63/109/85 135/229/85 136/230/85
f 65/112/6 137/231/6 138/233/6
f 67/115/6 139/235/6 137/232/6
f 66/114/6 138/234/6 140/236/6
f 62/108/3 68/116/3 140/236/3
f 59/105/2 131/225/2 139/235/2
f 70/118/1 142/238/1 141/237/1
f 69/117/1 141/237/1 143/239/1
f 72/120/1 144/240/1 142/238/1
f 64/110/3 136/230/3 144/240/3
f 71/119/2 143/239/2 133/227/2
