# Blender 3.5.1
# www.blender.org
o AleksanderInterior
v -50.000000 100.000000 0.000000
v -50.000000 -100.000000 0.000000
v 50.000000 100.000000 0.000000
v 50.000000 -100.000000 0.000000
v -50.000000 100.000000 90.000000
v -50.000000 -100.000000 90.000000
v 50.000000 100.000000 90.000000
v 50.000000 -100.000000 90.000000
v 59.999996 100.000000 0.000000
v 59.999996 -100.000000 0.000000
v 59.999992 79.999992 0.000000
v 59.999992 -79.999992 0.000000
v 59.999992 79.999992 90.000000
v 59.999992 -79.999992 90.000000
v 69.999992 100.000000 0.000000
v 69.999992 -100.000000 0.000000
v 69.999992 -79.999992 0.000000
v 69.999992 -79.999992 90.000000
v 69.999992 79.999992 0.000000
v 69.999992 79.999992 90.000000
v 59.999992 71.999992 113.000000
v 59.999992 -71.999992 113.000000
v 69.999992 -71.999992 113.000000
v 69.999992 71.999992 113.000000
v -50.000000 90.000000 113.000000
v -50.000000 -90.000000 113.000000
v 50.000000 90.000000 113.000000
v 50.000000 -90.000000 113.000000
v -50.000000 90.000000 120.000000
v -50.000000 -90.000000 120.000000
v 50.000000 90.000000 120.000000
v 50.000000 -90.000000 120.000000
v 59.999992 71.999992 120.000000
v 59.999992 -71.999992 120.000000
v -50.000000 100.500000 -0.010000
v -50.000000 -100.500000 -0.010000
v 50.266312 100.430908 -0.011910
v 50.266312 -100.430908 -0.011910
v -50.000000 100.500000 90.000046
v -50.000000 -100.500000 90.000046
v 50.305061 100.500252 90.000046
v 50.305061 -100.500252 90.000046
v 59.999996 100.000000 -0.010000
v 59.999996 -100.000000 -0.010000
v 60.309006 80.499992 0.000000
v 60.309006 -80.499992 0.000000
v 60.305725 80.499847 90.000038
v 60.305725 -80.499847 90.000038
v 69.999992 100.000000 -0.010000
v 69.999992 -100.000000 -0.010000
v 70.499992 -80.499992 0.000000
v 70.499443 -80.500549 90.000038
v 70.499992 80.499992 0.000000
v 70.499443 80.500549 90.000038
v 60.677677 72.479439 113.004974
v 60.677677 -72.479439 113.004974
v 70.499153 -72.496941 113.010010
v 70.499153 72.496941 113.010010
v -50.000000 90.500000 113.000046
v -50.000000 -90.500000 113.000046
v 50.298393 90.499809 113.000038
v 50.298393 -90.499809 113.000038
v -50.000000 90.500000 120.010002
v -50.000000 -90.500000 120.010002
v 50.314926 90.535225 120.009529
v 50.314926 -90.535225 120.009529
v 60.508148 72.131668 120.009094
v 60.508148 -72.131668 120.009094
vn -0.0000 -0.0000 1.0000
vn -0.0000 1.0000 -0.0000
vn -0.0000 -1.0000 -0.0000
vn -0.8944 -0.4472 -0.0000
vn -0.8944 0.4472 -0.0000
vn -1.0000 -0.0000 -0.0000
vn -0.0000 -0.9445 -0.3285
vn -0.0000 0.9445 -0.3285
vn -0.0000 0.9171 -0.3987
vn -0.0000 -0.9171 -0.3987
vn -0.8780 0.4390 -0.1909
vn -0.8780 -0.4390 -0.1909
vn -0.0000 -0.0000 -1.0000
vn -0.8742 0.4856 -0.0000
vn -0.8742 -0.4856 -0.0000
vn 0.0007 -1.0000 -0.0008
vn 0.0007 1.0000 -0.0008
vn 0.0002 -0.0000 -1.0000
vn 0.8930 0.4500 -0.0007
vn 0.8930 -0.4500 -0.0007
vn -0.0001 1.0000 -0.0000
vn 1.0000 -0.0000 -0.0000
vn -0.0001 0.9443 0.3292
vn -0.0001 -0.9443 0.3292
vn -0.0000 -0.9171 0.3987
vn -0.0000 0.9171 0.3987
vn 0.8779 -0.4390 0.1911
vn 0.8779 0.4390 0.1911
vn -0.0005 -0.0000 1.0000
vn -0.0000 -1.0000 -0.0051
vn -0.0000 1.0000 -0.0051
vn 0.9997 -0.0000 0.0242
vn 0.8665 -0.4991 -0.0046
vn 0.8739 0.4840 0.0452
vn -1.0000 -0.0000 0.0006
vn -0.0000 0.0276 0.9996
vn 0.0442 -0.9990 -0.0000
vn -0.0241 0.0127 -0.9996
vn -0.8619 0.4789 -0.1666
vn -0.8619 -0.4789 -0.1666
vn 0.8944 0.4472 -0.0000
vn 0.8944 -0.4472 -0.0000
vn -0.0001 -1.0000 -0.0000
vn -0.0019 0.9445 0.3285
vn -0.0019 -0.9445 0.3285
vn 0.8556 -0.4929 0.1580
vn 0.8556 0.4929 0.1580
vn -0.0004 -1.0000 -0.0000
vn -0.0004 1.0000 -0.0000
vn 0.8739 -0.4840 0.0452
vn 0.8665 0.4991 -0.0046
vn -1.0000 -0.0000 -0.0012
vn 0.0442 0.9990 -0.0000
vn -0.0000 -0.0276 0.9996
vn -0.0241 -0.0127 -0.9996
vt 0.096667 0.033333
vt 0.060000 0.000000
vt 0.096667 0.000000
vt 0.093334 0.000000
vt 0.113334 0.033333
vt 0.076667 0.000000
vt 0.000000 0.000001
vt 0.076667 0.000000
vt 0.113334 0.000000
vt 0.033333 0.000001
vt 0.060000 0.749995
vt 0.093333 0.749995
vt 0.000000 0.750000
vt 0.076667 0.749995
vt 0.076667 0.749995
vt 0.033333 0.750000
vt 0.115000 0.033333
vt 0.115000 0.000000
vt 0.003333 0.000000
vt 0.095000 0.000000
vt 0.095000 0.000000
vt 0.030000 0.000000
vt 0.095000 0.749996
vt 0.003333 0.749999
vt 0.095000 0.749996
vt 0.030000 0.749999
vt 0.116667 0.033333
vt 0.116667 0.000000
vt 0.060000 0.000000
vt 0.093334 0.000000
vt 0.060000 0.749999
vt 0.093334 0.749996
vt 0.096667 0.000000
vt 0.033333 0.000000
vt 0.096667 0.749996
vt 0.033333 0.749999
vt 0.095000 0.941665
vt 0.004667 0.941665
vt 0.096667 0.063333
vt 0.096667 0.087333
vt 0.095000 0.941665
vt 0.028667 0.941665
vt 0.093334 0.941665
vt 0.058667 0.941665
vt 0.098334 0.087333
vt 0.096667 0.941665
vt 0.034667 0.941665
vt 0.098334 0.063333
vt 0.060000 0.941666
vt 0.093333 0.941666
vt 0.076667 0.941666
vt 0.001667 0.941667
vt 0.076667 0.941666
vt 0.031667 0.941667
vt 0.096667 0.033333
vt 0.060000 0.999999
vt 0.093333 0.999999
vt 0.096667 0.063333
vt 0.076667 0.999999
vt 0.001667 1.000000
vt 0.113334 0.033333
vt 0.076667 0.999999
vt 0.031667 1.000000
vt 0.113334 0.063333
vt 0.004667 0.999999
vt 0.115000 0.036333
vt 0.115000 0.060333
vt 0.028667 0.999999
vt 0.060000 0.000000
vt 0.096667 0.033333
vt 0.096667 0.000000
vt 0.093334 0.000000
vt 0.076667 0.000000
vt 0.113334 0.033333
vt 0.000000 0.000001
vt 0.076667 0.000000
vt 0.033333 0.000001
vt 0.113334 0.000000
vt 0.060000 0.749995
vt 0.093333 0.749995
vt 0.076667 0.749995
vt 0.000000 0.750000
vt 0.076667 0.749995
vt 0.033333 0.750000
vt 0.115000 0.033333
vt 0.115000 0.000000
vt 0.003333 0.000000
vt 0.095000 0.000000
vt 0.030000 0.000000
vt 0.095000 0.000000
vt 0.095000 0.749996
vt 0.003333 0.749999
vt 0.095000 0.749996
vt 0.030000 0.749999
vt 0.116667 0.033333
vt 0.116667 0.000000
vt 0.093334 0.000000
vt 0.060000 0.000000
vt 0.060000 0.749999
vt 0.093334 0.749996
vt 0.096667 0.000000
vt 0.033333 0.000000
vt 0.096667 0.749996
vt 0.033333 0.749999
vt 0.095000 0.941665
vt 0.096667 0.063333
vt 0.004667 0.941665
vt 0.096667 0.087333
vt 0.095000 0.941665
vt 0.028667 0.941665
vt 0.093334 0.941665
vt 0.058667 0.941665
vt 0.098334 0.087333
vt 0.096667 0.941665
vt 0.034667 0.941665
vt 0.098334 0.063333
vt 0.060000 0.941666
vt 0.093333 0.941666
vt 0.076667 0.941666
vt 0.001667 0.941667
vt 0.076667 0.941666
vt 0.031667 0.941667
vt 0.060000 0.999999
vt 0.096667 0.033333
vt 0.093333 0.999999
vt 0.096667 0.063333
vt 0.076667 0.999999
vt 0.001667 1.000000
vt 0.113334 0.033333
vt 0.076667 0.999999
vt 0.031667 1.000000
vt 0.113334 0.063333
vt 0.004667 0.999999
vt 0.115000 0.036333
vt 0.115000 0.060333
vt 0.028667 0.999999
s 0
f 2/3/1 3/5/1 1/1/1
f 2/4/2 8/15/2 4/8/2
f 3/6/3 5/11/3 1/2/3
f 4/9/1 9/17/1 3/5/1
f 3/7/4 13/24/4 7/13/4
f 8/16/5 12/22/5 4/10/5
f 10/18/1 15/27/1 9/17/1
f 14/25/2 17/30/2 12/21/2
f 11/20/3 20/35/3 13/23/3
f 20/36/6 17/29/6 18/31/6
f 20/35/7 21/37/7 13/23/7
f 14/25/8 23/43/8 18/32/8
f 23/44/6 20/36/6 18/31/6
f 6/12/9 28/53/9 8/15/9
f 7/14/10 25/49/10 5/11/10
f 28/54/11 14/26/11 8/16/11
f 13/24/12 27/52/12 7/13/12
f 21/39/13 23/45/13 22/40/13
f 26/50/2 32/62/2 28/53/2
f 27/51/3 29/56/3 25/49/3
f 22/42/6 33/65/6 21/38/6
f 28/54/14 34/68/14 22/42/14
f 33/65/15 27/52/15 21/38/15
f 32/64/13 29/55/13 31/61/13
f 32/64/13 33/66/13 34/67/13
f 37/74/13 36/71/13 35/70/13
f 42/83/16 36/72/16 38/76/16
f 35/69/17 41/81/17 37/73/17
f 43/85/18 38/78/18 37/74/18
f 41/82/19 45/87/19 37/75/19
f 46/89/20 42/84/20 38/77/20
f 49/95/13 44/86/13 43/85/13
f 51/97/3 48/93/3 46/90/3
f 54/103/21 45/88/21 47/91/21
f 51/98/22 54/104/22 52/99/22
f 55/105/23 54/103/23 47/91/23
f 52/100/24 56/109/24 48/93/24
f 54/104/22 57/112/22 52/99/22
f 62/121/25 40/80/25 42/83/25
f 39/79/26 61/119/26 41/81/26
f 48/94/27 62/122/27 42/84/27
f 61/120/28 47/92/28 41/82/28
f 57/113/29 55/106/29 56/108/29
f 66/130/30 60/118/30 62/121/30
f 59/117/31 65/127/31 61/119/31
f 55/107/32 68/136/32 56/110/32
f 56/110/33 66/131/33 62/122/33
f 55/107/34 65/128/34 67/133/34
f 63/124/1 66/132/1 65/129/1
f 67/134/1 66/132/1 68/135/1
f 1/1/35 36/71/35 2/3/35
f 2/4/6 40/80/6 6/12/6
f 1/2/6 39/79/6 35/69/6
f 9/17/36 37/74/36 3/5/36
f 10/18/37 38/78/37 44/86/37
f 3/7/13 45/87/13 11/19/13
f 4/10/38 46/89/38 38/77/38
f 16/28/22 49/95/22 15/27/22
f 15/27/2 43/85/2 9/17/2
f 10/18/3 50/96/3 16/28/3
f 17/30/13 46/90/13 12/21/13
f 19/33/13 45/88/13 53/101/13
f 19/34/13 51/98/13 17/29/13
f 6/12/6 60/118/6 26/50/6
f 5/11/6 59/117/6 39/79/6
f 30/57/6 60/118/6 64/125/6
f 29/56/6 59/117/6 25/49/6
f 30/58/6 63/124/6 29/55/6
f 2/3/1 4/9/1 3/5/1
f 2/4/2 6/12/2 8/15/2
f 3/6/3 7/14/3 5/11/3
f 4/9/1 10/18/1 9/17/1
f 3/7/4 11/19/4 13/24/4
f 8/16/5 14/26/5 12/22/5
f 10/18/1 16/28/1 15/27/1
f 14/25/2 18/32/2 17/30/2
f 11/20/3 19/33/3 20/35/3
f 20/36/6 19/34/6 17/29/6
f 20/35/7 24/46/7 21/37/7
f 14/25/8 22/41/8 23/43/8
f 23/44/6 24/47/6 20/36/6
f 6/12/9 26/50/9 28/53/9
f 7/14/10 27/51/10 25/49/10
f 28/54/39 22/42/39 14/26/39
f 13/24/40 21/38/40 27/52/40
f 21/39/13 24/48/13 23/45/13
f 26/50/2 30/57/2 32/62/2
f 27/51/3 31/59/3 29/56/3
f 22/42/6 34/68/6 33/65/6
f 28/54/14 32/63/14 34/68/14
f 33/65/15 31/60/15 27/52/15
f 32/64/13 30/58/13 29/55/13
f 32/64/13 31/61/13 33/66/13
f 37/74/13 38/78/13 36/71/13
f 42/83/3 40/80/3 36/72/3
f 35/69/2 39/79/2 41/81/2
f 43/85/18 44/86/18 38/78/18
f 41/82/41 47/92/41 45/87/41
f 46/89/42 48/94/42 42/84/42
f 49/95/13 50/96/13 44/86/13
f 51/97/43 52/100/43 48/93/43
f 54/103/2 53/101/2 45/88/2
f 51/98/22 53/102/22 54/104/22
f 55/105/44 58/114/44 54/103/44
f 52/100/45 57/111/45 56/109/45
f 54/104/22 58/115/22 57/112/22
f 62/121/25 60/118/25 40/80/25
f 39/79/26 59/117/26 61/119/26
f 48/94/46 56/110/46 62/122/46
f 61/120/47 55/107/47 47/92/47
f 57/113/29 58/116/29 55/106/29
f 66/130/48 64/125/48 60/118/48
f 59/117/49 63/123/49 65/127/49
f 55/107/32 67/133/32 68/136/32
f 56/110/50 68/136/50 66/131/50
f 55/107/51 61/120/51 65/128/51
f 63/124/1 64/126/1 66/132/1
f 67/134/1 65/129/1 66/132/1
f 1/1/52 35/70/52 36/71/52
f 2/4/6 36/72/6 40/80/6
f 1/2/6 5/11/6 39/79/6
f 9/17/53 43/85/53 37/74/53
f 10/18/54 4/9/54 38/78/54
f 3/7/55 37/75/55 45/87/55
f 4/10/13 12/22/13 46/89/13
f 16/28/22 50/96/22 49/95/22
f 15/27/2 49/95/2 43/85/2
f 10/18/3 44/86/3 50/96/3
f 17/30/13 51/97/13 46/90/13
f 19/33/13 11/20/13 45/88/13
f 19/34/13 53/102/13 51/98/13
f 6/12/6 40/80/6 60/118/6
f 5/11/6 25/49/6 59/117/6
f 30/57/6 26/50/6 60/118/6
f 29/56/6 63/123/6 59/117/6
f 30/58/6 64/126/6 63/124/6
