# Blender 3.5.1
# www.blender.org - n
o AleksanderInterior.002
v 100.000000 50.000000 0.000000
v -100.000000 50.000000 0.000000
v 100.000000 -50.000000 0.000000
v -100.000000 -50.000000 0.000000
v 79.999992 -59.999992 0.000000
v -79.999992 -59.999992 0.000000
v -79.999992 -69.999992 0.000000
v 79.999992 -69.999992 0.000000
v 100.000000 180.000000 0.000000
v -100.000000 180.000000 0.000000
v 80.000000 190.000000 0.000000
v -80.000000 190.000000 0.000000
v 80.000000 209.999985 0.000000
v -80.000000 209.999985 0.000000
v 100.000000 219.999985 0.000000
v -100.000000 219.999985 0.000000
v -150.000000 219.999985 0.000000
v -100.000000 500.000000 0.000000
v -150.000000 500.000000 0.000000
v 100.000000 500.000000 0.000000
v 79.999992 510.000000 0.000000
v -79.999992 510.000000 0.000000
v 79.999992 530.000000 0.000000
v -79.999992 530.000000 0.000000
v 99.999992 539.999939 0.000000
v -99.999992 539.999939 0.000000
v 99.999992 670.000000 0.000000
v -99.999992 670.000000 0.000000
v 139.999985 539.999939 0.000000
v -139.999985 539.999939 0.000000
v 139.999985 670.000000 0.000000
v -139.999985 670.000000 0.000000
v -169.999985 549.999939 0.000000
v -169.999985 660.000000 0.000000
v 170.000000 549.999939 0.000000
v 170.000000 660.000000 0.000000
v -179.999985 580.000000 0.000000
v -179.999985 630.000000 0.000000
v 180.000000 580.000000 0.000000
v 180.000000 630.000000 0.000000
v -182.999985 580.000000 0.000000
v -182.999985 630.000000 0.000000
v 183.000000 580.000000 0.000000
v 183.000000 630.000000 0.000000
v -300.000000 219.999985 0.000000
v -300.000000 500.000000 0.000000
v -330.000000 249.999969 0.000000
v -330.000000 469.999969 0.000000
v 150.000000 219.999985 0.000000
v 150.000000 500.000000 0.000000
v 160.000000 500.000000 0.000000
v 150.000000 389.999969 0.000000
v 160.000000 389.999969 0.000000
v 190.000000 500.000000 0.000000
v 190.000000 389.999969 0.000000
v 200.000000 480.000031 0.000000
v 200.000000 409.999939 0.000000
v 209.999985 470.000031 0.000000
v 209.999985 419.999939 0.000000
v 212.999985 470.000031 0.000000
v 212.999985 419.999939 0.000000
v 100.000000 -50.000000 -6.691632
v 100.000000 50.000000 -6.691632
v -100.000000 50.000000 -6.691632
v -100.000000 -50.000000 -6.691632
v 79.999992 -59.999992 -6.691632
v -79.999992 -59.999992 -6.691632
v -79.999992 -69.999992 -6.691632
v 79.999992 -69.999992 -6.691632
v 100.000000 180.000000 -6.691632
v -100.000000 180.000000 -6.691632
v 80.000000 190.000000 -6.691632
v -80.000000 190.000000 -6.691632
v 80.000000 209.999985 -6.691632
v -80.000000 209.999985 -6.691632
v 100.000000 219.999985 -6.691632
v -100.000000 219.999985 -6.691632
v 150.000000 219.999985 -6.691632
v -150.000000 219.999985 -6.691632
v 100.000000 500.000000 -6.691632
v -100.000000 500.000000 -6.691632
v 150.000000 500.000000 -6.691632
v -150.000000 500.000000 -6.691632
v 79.999992 510.000000 -6.691632
v -79.999992 510.000000 -6.691632
v 79.999992 530.000000 -6.691632
v -79.999992 530.000000 -6.691632
v 99.999992 539.999939 -6.691632
v -99.999992 539.999939 -6.691632
v 99.999992 670.000000 -6.691632
v -99.999992 670.000000 -6.691632
v -139.999985 670.000000 -6.691632
v -139.999985 539.999939 -6.691632
v 139.999985 539.999939 -6.691632
v 139.999985 670.000000 -6.691632
v -169.999985 660.000000 -6.691632
v -169.999985 549.999939 -6.691632
v 170.000000 549.999939 -6.691632
v 170.000000 660.000000 -6.691632
v -179.999985 630.000000 -6.691632
v -179.999985 580.000000 -6.691632
v 180.000000 580.000000 -6.691632
v 180.000000 630.000000 -6.691632
v -182.999985 630.000000 -6.691632
v -182.999985 580.000000 -6.691632
v 183.000000 580.000000 -6.691632
v 183.000000 630.000000 -6.691632
v -300.000000 500.000000 -6.691632
v -300.000000 219.999985 -6.691632
v -330.000000 469.999969 -6.691632
v -330.000000 249.999969 -6.691632
v 160.000000 500.000000 -6.691632
v 150.000000 389.999969 -6.691632
v 160.000000 389.999969 -6.691632
v 190.000000 500.000000 -6.691632
v 190.000000 389.999969 -6.691632
v 200.000000 480.000031 -6.691632
v 200.000000 409.999939 -6.691632
v 209.999985 470.000031 -6.691632
v 209.999985 419.999939 -6.691632
v 212.999985 470.000031 -6.691632
v 212.999985 419.999939 -6.691632
vn -0.0000 -0.0000 1.0000
vn -0.0000 -0.0000 -1.0000
vn -0.0000 1.0000 -0.0000
vn 0.4472 -0.8944 -0.0000
vn -0.0000 -1.0000 -0.0000
vn 1.0000 -0.0000 -0.0000
vn -0.3162 -0.9487 -0.0000
vn -0.3162 0.9487 -0.0000
vn 0.3162 0.9487 -0.0000
vn 0.3162 -0.9487 -0.0000
vn -1.0000 -0.0000 -0.0000
vn -0.8944 -0.4472 -0.0000
vn -0.8944 0.4472 -0.0000
vn -0.9487 -0.3162 -0.0000
vn -0.9487 0.3162 -0.0000
vn -0.7071 -0.7071 -0.0000
vn -0.4472 0.8944 -0.0000
vn -0.4472 -0.8944 -0.0000
vn -0.7071 0.7071 -0.0000
vn 0.9487 0.3162 -0.0000
vn 0.4472 0.8944 -0.0000
vn 0.9487 -0.3162 -0.0000
vt 0.096667 0.033333
vt 0.096667 0.000000
vt 0.000000 0.000001
vt 0.113334 0.033333
vt 0.113334 0.000000
vt 0.033333 0.000001
vt 0.095000 0.000000
vt 0.003333 0.000000
vt 0.030000 0.000000
vt 0.095000 0.000000
vt 0.060000 0.000000
vt 0.096667 0.000000
vt 0.096667 0.033333
vt 0.096667 0.000000
vt 0.096667 0.033333
vt 0.096667 0.000000
vt 0.096667 0.033333
vt 0.096667 0.000000
vt 0.096667 0.033333
vt 0.060000 0.000000
vt 0.093334 0.000000
vt 0.096667 0.000000
vt 0.093334 0.000000
vt 0.096667 0.000000
vt 0.093334 0.000000
vt 0.093334 0.000000
vt 0.060000 0.000000
vt 0.096667 0.033333
vt 0.096667 0.033333
vt 0.096667 0.000000
vt 0.096667 0.033333
vt 0.096667 0.000000
vt 0.096667 0.033333
vt 0.096667 0.000000
vt 0.096667 0.033333
vt 0.096667 0.000000
vt 0.096667 0.033333
vt 0.096667 0.000000
vt 0.096667 0.033333
vt 0.096667 0.000000
vt 0.096667 0.000000
vt 0.096667 0.000000
vt 0.096667 0.033333
vt 0.096667 0.033333
vt 0.096667 0.000000
vt 0.000000 0.000000
vt 0.000000 0.000000
vt 0.096667 0.000000
vt 0.096667 0.033333
vt 0.096667 0.033333
vt 0.000000 0.000000
vt 0.000000 0.000000
vt 0.096667 0.033333
vt 0.096667 0.033333
vt 0.093334 0.000000
vt 0.093334 0.000000
vt 0.093334 0.000000
vt 0.093334 0.000000
vt 0.060000 0.000000
vt 0.060000 0.000000
vt 0.060000 0.000000
vt 0.060000 0.000000
vt 0.060000 0.000000
vt 0.060000 0.000000
vt 0.060000 0.000000
vt 0.060000 0.000000
vt 0.060000 0.000000
vt 0.060000 0.000000
vt 0.060000 0.000000
vt 0.060000 0.000000
vt 0.060000 0.000000
vt 0.113334 0.033333
vt 0.000000 0.000001
vt 0.096667 0.033333
vt 0.096667 0.000000
vt 0.113334 0.000000
vt 0.033333 0.000001
vt 0.003333 0.000000
vt 0.095000 0.000000
vt 0.030000 0.000000
vt 0.095000 0.000000
vt 0.060000 0.000000
vt 0.096667 0.000000
vt 0.096667 0.033333
vt 0.096667 0.000000
vt 0.096667 0.033333
vt 0.096667 0.000000
vt 0.096667 0.033333
vt 0.096667 0.000000
vt 0.096667 0.033333
vt 0.060000 0.000000
vt 0.093334 0.000000
vt 0.096667 0.000000
vt 0.060000 0.000000
vt 0.093334 0.000000
vt 0.060000 0.000000
vt 0.096667 0.033333
vt 0.093334 0.000000
vt 0.096667 0.000000
vt 0.060000 0.000000
vt 0.093334 0.000000
vt 0.096667 0.033333
vt 0.096667 0.000000
vt 0.096667 0.033333
vt 0.096667 0.000000
vt 0.096667 0.033333
vt 0.096667 0.000000
vt 0.096667 0.033333
vt 0.096667 0.000000
vt 0.096667 0.000000
vt 0.096667 0.000000
vt 0.096667 0.033333
vt 0.096667 0.033333
vt 0.096667 0.000000
vt 0.096667 0.000000
vt 0.096667 0.033333
vt 0.096667 0.033333
vt 0.096667 0.000000
vt 0.000000 0.000000
vt 0.096667 0.000000
vt 0.000000 0.000000
vt 0.096667 0.033333
vt 0.096667 0.033333
vt 0.000000 0.000000
vt 0.000000 0.000000
vt 0.096667 0.033333
vt 0.096667 0.033333
vt 0.093334 0.000000
vt 0.093334 0.000000
vt 0.093334 0.000000
vt 0.093334 0.000000
vt 0.060000 0.000000
vt 0.060000 0.000000
vt 0.060000 0.000000
vt 0.060000 0.000000
vt 0.060000 0.000000
vt 0.060000 0.000000
vt 0.060000 0.000000
vt 0.060000 0.000000
vt 0.060000 0.000000
vt 0.060000 0.000000
vt 0.060000 0.000000
s 0
f 2/2/1 3/4/1 1/1/1
f 6/9/1 3/3/1 4/6/1
f 6/10/1 8/12/1 5/7/1
f 1/1/1 10/14/1 2/2/1
f 9/13/1 12/16/1 10/14/1
f 11/15/1 14/18/1 12/16/1
f 13/17/1 16/22/1 14/18/1
f 16/21/1 19/26/1 17/23/1
f 49/59/1 20/27/1 15/20/1
f 15/19/1 18/24/1 16/22/1
f 20/28/1 22/30/1 18/24/1
f 21/29/1 24/32/1 22/30/1
f 23/31/1 26/34/1 24/32/1
f 25/33/1 28/36/1 26/34/1
f 28/36/1 30/38/1 26/34/1
f 25/33/1 31/39/1 27/35/1
f 32/40/1 33/41/1 30/38/1
f 29/37/1 36/44/1 31/39/1
f 34/42/1 37/45/1 33/41/1
f 36/44/1 39/49/1 40/50/1
f 37/46/2 42/52/2 38/47/2
f 39/49/1 44/54/1 40/50/1
f 19/26/1 45/55/1 17/23/1
f 45/55/1 48/58/1 47/57/1
f 54/64/2 53/63/2 51/61/2
f 53/63/2 50/60/2 51/61/2
f 56/66/2 55/65/2 54/64/2
f 58/68/2 57/67/2 56/66/2
f 60/70/2 59/69/2 58/68/2
f 62/72/2 64/75/2 63/74/2
f 62/73/2 67/80/2 65/77/2
f 69/83/2 67/81/2 66/79/2
f 71/85/2 63/74/2 64/75/2
f 73/87/2 70/84/2 71/85/2
f 75/89/2 72/86/2 73/87/2
f 77/93/2 74/88/2 75/89/2
f 83/101/2 77/92/2 79/95/2
f 80/96/2 78/94/2 76/91/2
f 81/99/2 76/90/2 77/93/2
f 85/103/2 80/97/2 81/99/2
f 87/105/2 84/102/2 85/103/2
f 89/107/2 86/104/2 87/105/2
f 91/109/2 88/106/2 89/107/2
f 93/111/2 91/109/2 89/107/2
f 95/113/2 88/106/2 90/108/2
f 97/115/2 92/110/2 93/111/2
f 99/117/2 94/112/2 95/113/2
f 101/120/2 96/114/2 97/115/2
f 99/117/2 102/122/2 98/116/2
f 104/124/1 101/121/1 100/119/1
f 107/127/2 102/122/2 103/123/2
f 109/129/2 83/101/2 79/95/2
f 109/129/2 110/130/2 108/128/2
f 114/134/1 115/135/1 112/132/1
f 82/100/1 114/134/1 112/132/1
f 116/136/1 117/137/1 115/135/1
f 118/138/1 119/139/1 117/137/1
f 120/140/1 121/141/1 119/139/1
f 28/36/3 92/110/3 32/40/3
f 13/17/4 76/90/4 15/19/4
f 53/63/3 113/133/3 52/62/3
f 31/39/3 90/108/3 27/35/3
f 15/20/5 78/94/5 49/59/5
f 17/23/5 77/92/5 16/21/5
f 52/62/6 82/100/6 50/60/6
f 33/41/7 93/111/7 30/38/7
f 32/40/8 96/114/8 34/42/8
f 50/60/3 80/96/3 20/27/3
f 55/65/3 114/134/3 53/63/3
f 18/25/3 83/101/3 19/26/3
f 3/4/6 63/74/6 1/1/6
f 51/61/5 115/135/5 54/64/5
f 36/44/9 95/113/9 31/39/9
f 29/37/10 98/116/10 35/43/10
f 2/2/11 65/76/11 4/5/11
f 54/64/12 117/137/12 56/66/12
f 57/67/13 116/136/13 55/65/13
f 37/45/14 97/115/14 33/41/14
f 49/59/6 82/100/6 50/60/6
f 34/42/15 100/118/15 38/48/15
f 5/8/4 62/73/4 3/3/4
f 56/66/16 119/139/16 58/68/16
f 22/30/17 81/99/17 18/24/17
f 4/6/18 67/80/18 6/9/18
f 59/69/19 118/138/19 57/67/19
f 40/50/20 99/117/20 36/44/20
f 20/28/21 84/102/21 21/29/21
f 6/10/11 68/82/11 7/11/11
f 60/70/11 122/142/11 61/71/11
f 35/43/22 102/122/22 39/49/22
f 8/12/6 66/79/6 5/7/6
f 58/68/5 121/141/5 60/70/5
f 41/51/6 104/124/6 42/52/6
f 24/32/11 85/103/11 22/30/11
f 7/11/5 69/83/5 8/12/5
f 61/71/3 120/140/3 59/69/3
f 42/52/5 100/119/5 38/47/5
f 21/29/6 86/104/6 23/31/6
f 37/46/3 105/125/3 41/51/3
f 10/14/11 64/75/11 2/2/11
f 43/53/6 107/127/6 44/54/6
f 26/34/18 87/105/18 24/32/18
f 1/1/6 70/84/6 9/13/6
f 44/54/3 103/123/3 40/50/3
f 23/31/4 88/106/4 25/33/4
f 39/49/5 106/126/5 43/53/5
f 27/35/3 91/109/3 28/36/3
f 12/16/17 71/85/17 10/14/17
f 9/13/21 72/86/21 11/15/21
f 19/26/3 108/128/3 46/56/3
f 45/55/5 79/95/5 17/23/5
f 11/15/6 74/88/6 13/17/6
f 48/58/11 111/131/11 47/57/11
f 14/18/11 73/87/11 12/16/11
f 47/57/16 109/129/16 45/55/16
f 25/33/5 94/112/5 29/37/5
f 46/56/19 110/130/19 48/58/19
f 30/38/5 89/107/5 26/34/5
f 16/22/18 75/89/18 14/18/18
f 50/60/5 112/132/5 51/61/5
f 2/2/1 4/5/1 3/4/1
f 6/9/1 5/8/1 3/3/1
f 6/10/1 7/11/1 8/12/1
f 1/1/1 9/13/1 10/14/1
f 9/13/1 11/15/1 12/16/1
f 11/15/1 13/17/1 14/18/1
f 13/17/1 15/19/1 16/22/1
f 16/21/1 18/25/1 19/26/1
f 49/59/1 50/60/1 20/27/1
f 15/19/1 20/28/1 18/24/1
f 20/28/1 21/29/1 22/30/1
f 21/29/1 23/31/1 24/32/1
f 23/31/1 25/33/1 26/34/1
f 25/33/1 27/35/1 28/36/1
f 28/36/1 32/40/1 30/38/1
f 25/33/1 29/37/1 31/39/1
f 32/40/1 34/42/1 33/41/1
f 29/37/1 35/43/1 36/44/1
f 34/42/1 38/48/1 37/45/1
f 36/44/1 35/43/1 39/49/1
f 37/46/2 41/51/2 42/52/2
f 39/49/1 43/53/1 44/54/1
f 19/26/1 46/56/1 45/55/1
f 45/55/1 46/56/1 48/58/1
f 54/64/2 55/65/2 53/63/2
f 53/63/2 52/62/2 50/60/2
f 56/66/2 57/67/2 55/65/2
f 58/68/2 59/69/2 57/67/2
f 60/70/2 61/71/2 59/69/2
f 62/72/2 65/76/2 64/75/2
f 62/73/2 66/78/2 67/80/2
f 69/83/2 68/82/2 67/81/2
f 71/85/2 70/84/2 63/74/2
f 73/87/2 72/86/2 70/84/2
f 75/89/2 74/88/2 72/86/2
f 77/93/2 76/90/2 74/88/2
f 83/101/2 81/98/2 77/92/2
f 80/96/2 82/100/2 78/94/2
f 81/99/2 80/97/2 76/90/2
f 85/103/2 84/102/2 80/97/2
f 87/105/2 86/104/2 84/102/2
f 89/107/2 88/106/2 86/104/2
f 91/109/2 90/108/2 88/106/2
f 93/111/2 92/110/2 91/109/2
f 95/113/2 94/112/2 88/106/2
f 97/115/2 96/114/2 92/110/2
f 99/117/2 98/116/2 94/112/2
f 101/120/2 100/118/2 96/114/2
f 99/117/2 103/123/2 102/122/2
f 104/124/1 105/125/1 101/121/1
f 107/127/2 106/126/2 102/122/2
f 109/129/2 108/128/2 83/101/2
f 109/129/2 111/131/2 110/130/2
f 114/134/1 116/136/1 115/135/1
f 82/100/1 113/133/1 114/134/1
f 116/136/1 118/138/1 117/137/1
f 118/138/1 120/140/1 119/139/1
f 120/140/1 122/142/1 121/141/1
f 28/36/3 91/109/3 92/110/3
f 13/17/4 74/88/4 76/90/4
f 53/63/3 114/134/3 113/133/3
f 31/39/3 95/113/3 90/108/3
f 15/20/5 76/91/5 78/94/5
f 17/23/5 79/95/5 77/92/5
f 52/62/6 113/133/6 82/100/6
f 33/41/7 97/115/7 93/111/7
f 32/40/8 92/110/8 96/114/8
f 50/60/3 82/100/3 80/96/3
f 55/65/3 116/136/3 114/134/3
f 18/25/3 81/98/3 83/101/3
f 3/4/6 62/72/6 63/74/6
f 51/61/5 112/132/5 115/135/5
f 36/44/9 99/117/9 95/113/9
f 29/37/10 94/112/10 98/116/10
f 2/2/11 64/75/11 65/76/11
f 54/64/12 115/135/12 117/137/12
f 57/67/13 118/138/13 116/136/13
f 37/45/14 101/120/14 97/115/14
f 49/59/6 78/94/6 82/100/6
f 34/42/15 96/114/15 100/118/15
f 5/8/4 66/78/4 62/73/4
f 56/66/16 117/137/16 119/139/16
f 22/30/17 85/103/17 81/99/17
f 4/6/18 65/77/18 67/80/18
f 59/69/19 120/140/19 118/138/19
f 40/50/20 103/123/20 99/117/20
f 20/28/21 80/97/21 84/102/21
f 6/10/11 67/81/11 68/82/11
f 60/70/11 121/141/11 122/142/11
f 35/43/22 98/116/22 102/122/22
f 8/12/6 69/83/6 66/79/6
f 58/68/5 119/139/5 121/141/5
f 41/51/6 105/125/6 104/124/6
f 24/32/11 87/105/11 85/103/11
f 7/11/5 68/82/5 69/83/5
f 61/71/3 122/142/3 120/140/3
f 42/52/5 104/124/5 100/119/5
f 21/29/6 84/102/6 86/104/6
f 37/46/3 101/121/3 105/125/3
f 10/14/11 71/85/11 64/75/11
f 43/53/6 106/126/6 107/127/6
f 26/34/18 89/107/18 87/105/18
f 1/1/6 63/74/6 70/84/6
f 44/54/3 107/127/3 103/123/3
f 23/31/4 86/104/4 88/106/4
f 39/49/5 102/122/5 106/126/5
f 27/35/3 90/108/3 91/109/3
f 12/16/17 73/87/17 71/85/17
f 9/13/21 70/84/21 72/86/21
f 19/26/3 83/101/3 108/128/3
f 45/55/5 109/129/5 79/95/5
f 11/15/6 72/86/6 74/88/6
f 48/58/11 110/130/11 111/131/11
f 14/18/11 75/89/11 73/87/11
f 47/57/16 111/131/16 109/129/16
f 25/33/5 88/106/5 94/112/5
f 46/56/19 108/128/19 110/130/19
f 30/38/5 93/111/5 89/107/5
f 16/22/18 77/93/18 75/89/18
f 50/60/5 82/100/5 112/132/5
