# Blender 3.5.1
# www.blender.org
o AleksanderInteriorColliders
v 65.999992 -71.999992 113.000000
v 50.000000 90.000000 113.000000
v -50.000000 90.000000 120.000000
v -50.000000 -90.000000 120.000000
v 50.000000 90.000000 120.000000
v 50.000000 -90.000000 120.000000
v 59.999992 71.999992 120.000000
v 59.999992 -71.999992 120.000000
v -180.000000 90.000000 120.000000
v -180.000000 -90.000000 120.000000
v -190.000000 70.000000 120.000000
v -180.000000 -100.000000 0.000000
v -180.000000 -100.000000 90.000000
v -190.000000 -80.000000 0.000000
v -190.000000 -80.000000 90.000000
v -190.000000 -70.000000 113.000000
v -209.999985 -80.000000 0.000000
v -209.999985 -80.000000 90.000000
v -209.999985 -70.000000 113.000000
v -219.999985 -100.000000 0.000000
v -219.999985 -100.000000 90.000000
v -219.999985 -150.000000 0.000000
v -219.999985 -150.000000 90.000000
v -219.999985 -140.000000 113.000000
v -219.999985 -90.000000 121.000000
v -219.999985 -140.000000 121.000000
v -180.000000 100.000000 0.000000
v -190.000000 80.000000 0.000000
v -190.000000 80.000000 90.000000
v -190.000000 70.000000 113.000000
v -209.999985 80.000000 0.000000
v -209.999985 80.000000 90.000000
v -209.999985 70.000000 113.000000
v -219.999985 100.000000 0.000000
v -219.999985 100.000000 90.000000
v -219.999985 150.000000 0.000000
v -219.999985 150.000000 90.000000
v -219.999985 140.000000 113.000000
v -219.999985 90.000000 121.000000
v -219.999985 140.000000 121.000000
v -190.000000 -70.000000 120.000000
v -219.999985 90.000000 113.000000
v -219.999985 -90.000000 113.000000
v -50.000000 100.000000 0.000000
v 50.000000 100.000000 0.000000
v -50.000000 100.000000 90.000000
v 50.000000 100.000000 90.000000
v 68.499992 79.999992 0.000000
v 68.499992 79.999992 90.000000
v -50.000000 90.000000 113.000000
v -180.000000 100.000000 90.000000
v -180.000000 90.000000 113.000000
v 50.869316 103.377342 0.683788
v -49.130684 103.377342 0.683788
v 50.869316 103.377342 90.683784
v -49.130684 103.377342 90.683784
v 65.869308 83.377342 0.683788
v 65.869308 83.377342 90.683784
v 65.869308 75.377342 113.683784
v 50.869316 93.377342 113.683784
v -49.130684 93.377342 113.683784
v -179.130692 103.377342 90.683784
v -179.130692 103.377342 0.683788
v -179.130692 93.377342 113.683784
v -50.000000 -100.000000 0.000000
v 50.000000 -100.000000 0.000000
v -50.000000 -100.000000 90.000000
v 50.000000 -100.000000 90.000000
v 66.666664 -79.999992 0.000000
v 66.666664 -79.999992 90.000000
v -50.000000 -90.000000 113.000000
v 50.000000 -90.000000 113.000000
v -180.000000 -90.000000 113.000000
v -49.021549 -103.801361 0.769634
v 50.978451 -103.801361 0.769634
v -49.021549 -103.801361 90.769630
v 50.978451 -103.801361 90.769630
v 65.978447 -83.801346 0.769634
v 65.978447 -83.801346 90.769630
v 65.978447 -75.801346 113.769630
v -49.021549 -93.801346 113.769630
v 50.978451 -93.801346 113.769630
v -179.021530 -103.801361 0.769634
v -179.021530 -103.801361 90.769630
v -179.021530 -93.801346 113.769630
v 67.333328 72.000000 113.000008
v 73.999992 -79.999992 90.000000
v 73.999992 -79.999992 0.000000
v 73.999992 -71.999992 113.000000
v -270.000000 150.000015 0.000000
v -270.000000 -150.000015 0.000000
v 79.999992 150.000015 0.000000
v 79.999992 -150.000015 0.000000
v 79.999992 150.000015 -4.000000
v -270.000000 150.000015 -4.000000
v -270.000000 -150.000015 -4.000000
v 79.999992 -150.000015 -4.000000
vn -0.0000 1.0000 -0.0000
vn -0.0000 -1.0000 -0.0000
vn -0.6905 0.0064 -0.7233
vn -0.6293 0.5594 -0.5394
vn -0.5750 -0.5537 -0.6024
vn -0.0000 -0.0000 -1.0000
vn 0.8944 0.4472 -0.0000
vn 0.8780 0.4390 -0.1909
vn -0.0000 0.9171 -0.3987
vn -0.8780 0.4390 -0.1909
vn -0.8944 0.4472 -0.0000
vn -1.0000 -0.0000 -0.0000
vn 0.8944 -0.4472 -0.0000
vn 0.8780 -0.4390 -0.1909
vn -0.0000 -0.9171 -0.3987
vn -0.8780 -0.4390 -0.1909
vn -0.8944 -0.4472 -0.0000
vn 1.0000 -0.0000 -0.0000
vn 0.7341 0.6790 -0.0000
vn -0.0000 0.9171 0.3987
vn 0.7041 0.6513 0.2832
vn -0.8000 -0.6000 -0.0000
vn -0.7741 -0.5806 -0.2524
vn -0.7891 -0.5666 -0.2371
vn -0.0000 -0.1984 0.9801
vn 0.3377 0.3252 -0.8833
vn -0.1949 -0.1462 0.9699
vn -0.0000 0.1984 -0.9801
vn 0.9684 -0.2493 -0.0000
vn -0.7889 -0.6145 -0.0000
vn 0.9683 -0.2291 -0.0996
vn 0.7682 -0.6402 -0.0000
vn -0.0000 -0.9171 0.3987
vn 0.7401 -0.6167 0.2681
vn -0.8000 0.6000 -0.0000
vn -0.7741 0.5806 -0.2524
vn -0.0000 -0.1984 -0.9801
vn -0.0000 0.1984 0.9801
vn 0.9684 0.2493 -0.0000
vn -0.9840 0.1781 -0.0000
vn -1.0000 0.0053 -0.0018
vn 0.9683 0.2291 -0.0996
vn -0.2878 0.2398 0.9272
vn 0.1804 -0.1504 -0.9720
vn 0.9999 -0.0115 -0.0000
vn 0.9994 -0.0093 0.0322
vn -0.9994 -0.0344 -0.0000
vn -0.9993 -0.0344 0.0119
vn -0.0000 0.9445 -0.3285
vn -0.0000 -0.0000 1.0000
vn -0.7593 -0.0000 -0.6508
vn -0.8742 0.4856 -0.0000
vn -0.8742 -0.4856 -0.0000
vn 0.6940 0.6683 0.2677
vn -0.7499 -0.6249 -0.2173
vn -0.9191 -0.3722 -0.1295
vn 0.1804 0.1504 -0.9720
vn -0.6487 -0.6001 0.4681
vn 0.7246 -0.6441 0.2450
vn -0.7499 0.6249 -0.2173
vn -0.9833 0.1609 -0.0845
vn -0.1949 0.1462 0.9699
vn 0.2192 -0.1948 -0.9560
vn 0.9988 -0.0114 0.0467
vn -0.9967 -0.0461 -0.0666
vt 0.093334 0.941665
vt 0.028667 0.941665
vt 0.058667 0.941665
vt 0.001667 0.941667
vt 0.076667 0.941666
vt 0.096667 0.033333
vt 0.060000 0.999999
vt 0.093333 0.999999
vt 0.096667 0.063333
vt 0.076667 0.999999
vt 0.001667 1.000000
vt 0.113334 0.033333
vt 0.076667 0.999999
vt 0.031667 1.000000
vt 0.113334 0.063333
vt 0.004667 0.999999
vt 0.115000 0.036333
vt 0.115000 0.060333
vt 0.028667 0.999999
vt 0.096667 0.033333
vt 0.060000 0.999999
vt 0.093333 0.999999
vt 0.096667 0.063333
vt 0.096667 0.033333
vt 0.060000 0.999999
vt 0.093334 0.000000
vt 0.093333 0.749995
vt 0.093334 0.000000
vt 0.093333 0.749995
vt 0.093333 0.941666
vt 0.093334 0.000000
vt 0.093333 0.749995
vt 0.093333 0.941666
vt 0.093334 0.000000
vt 0.093333 0.749995
vt 0.093334 0.000000
vt 0.093333 0.749995
vt 0.093333 0.941666
vt 0.093333 0.941666
vt 0.093333 0.941666
vt 0.060000 0.000000
vt 0.060000 0.000000
vt 0.060000 0.749995
vt 0.060000 0.941666
vt 0.060000 0.000000
vt 0.060000 0.749995
vt 0.060000 0.941666
vt 0.060000 0.000000
vt 0.060000 0.749995
vt 0.060000 0.000000
vt 0.060000 0.749995
vt 0.060000 0.941666
vt 0.060000 0.941666
vt 0.060000 0.941666
vt 0.093333 0.999999
vt 0.096667 0.063333
vt 0.060000 0.941666
vt 0.093333 0.941666
vt 0.060000 0.000000
vt 0.000000 0.000001
vt 0.076667 0.000000
vt 0.060000 0.749995
vt 0.000000 0.750000
vt 0.076667 0.749995
vt 0.096667 0.000000
vt 0.003333 0.000000
vt 0.033333 0.000000
vt 0.003333 0.749999
vt 0.096667 0.749996
vt 0.033333 0.749999
vt 0.060000 0.941666
vt 0.060000 0.749995
vt 0.060000 0.941666
vt 0.000000 0.000001
vt 0.076667 0.000000
vt 0.060000 0.000000
vt 0.000000 0.750000
vt 0.076667 0.749995
vt 0.060000 0.749995
vt 0.003333 0.000000
vt 0.096667 0.000000
vt 0.003333 0.749999
vt 0.096667 0.749996
vt 0.096667 0.941665
vt 0.004667 0.941665
vt 0.076667 0.941666
vt 0.001667 0.941667
vt 0.060000 0.941666
vt 0.060000 0.749995
vt 0.060000 0.000000
vt 0.060000 0.941666
vt 0.093334 0.000000
vt 0.076667 0.000000
vt 0.033333 0.000001
vt 0.093333 0.749995
vt 0.076667 0.749995
vt 0.033333 0.750000
vt 0.030000 0.000000
vt 0.093334 0.000000
vt 0.060000 0.000000
vt 0.030000 0.749999
vt 0.093334 0.749996
vt 0.060000 0.749999
vt 0.093333 0.941666
vt 0.076667 0.941666
vt 0.031667 0.941667
vt 0.093333 0.941666
vt 0.093334 0.000000
vt 0.076667 0.000000
vt 0.033333 0.000001
vt 0.093333 0.749995
vt 0.076667 0.749995
vt 0.033333 0.750000
vt 0.093334 0.000000
vt 0.030000 0.000000
vt 0.030000 0.749999
vt 0.093334 0.749996
vt 0.093334 0.941665
vt 0.028667 0.941665
vt 0.093333 0.941666
vt 0.031667 0.941667
vt 0.076667 0.941666
vt 0.093334 0.000000
vt 0.093333 0.749995
vt 0.093333 0.941666
vt 0.004667 0.941665
vt 0.096667 0.941665
vt 0.034667 0.941665
vt 0.060000 0.749999
vt 0.060000 0.000000
vt 0.058667 0.941665
vt 0.000000 0.000000
vt 1.000000 0.000000
vt 0.000000 1.000000
vt 1.000000 1.000000
vt 0.000000 1.000000
vt 0.000000 0.000000
vt 1.000000 0.000000
vt 1.000000 1.000000
s 0
f 71/104/1 6/13/1 72/105/1
f 2/5/2 3/7/2 50/71/2
f 1/2/3 7/16/3 86/126/3
f 72/106/4 8/19/4 1/2/4
f 7/16/5 2/4/5 86/126/5
f 6/15/6 3/6/6 5/12/6
f 6/15/6 7/17/6 8/18/6
f 71/104/1 10/22/1 4/8/1
f 4/9/6 9/20/6 3/6/6
f 3/7/2 52/73/2 50/71/2
f 10/23/6 11/24/6 9/20/6
f 73/107/7 41/55/7 10/22/7
f 73/107/8 15/29/8 16/30/8
f 12/26/7 15/29/7 13/27/7
f 15/29/9 19/33/9 16/30/9
f 14/28/1 18/32/1 15/29/1
f 18/32/10 43/58/10 19/33/10
f 17/31/11 21/35/11 18/32/11
f 21/35/12 24/38/12 43/58/12
f 20/34/12 23/37/12 21/35/12
f 24/38/12 25/39/12 43/58/12
f 9/21/13 30/44/13 52/73/13
f 52/73/14 29/43/14 51/72/14
f 51/72/13 28/42/13 27/41/13
f 30/44/15 32/46/15 29/43/15
f 29/43/2 31/45/2 28/42/2
f 32/46/16 42/57/16 35/49/16
f 32/46/17 34/48/17 31/45/17
f 35/49/12 38/52/12 37/51/12
f 35/49/12 36/50/12 34/48/12
f 42/57/12 40/54/12 38/52/12
f 30/44/18 41/56/18 16/30/18
f 16/30/6 33/47/6 30/44/6
f 33/47/6 43/58/6 42/57/6
f 43/58/12 39/53/12 42/57/12
f 46/62/1 45/61/1 44/59/1
f 49/68/19 45/60/19 47/63/19
f 50/71/20 47/64/20 46/62/20
f 2/4/21 49/68/21 47/63/21
f 51/72/20 50/71/20 46/62/20
f 27/41/1 46/62/1 44/59/1
f 53/75/2 56/79/2 54/76/2
f 53/74/22 58/82/22 55/77/22
f 55/78/15 61/88/15 56/79/15
f 58/82/23 60/87/23 55/77/23
f 61/88/15 62/89/15 56/79/15
f 56/79/2 63/90/2 54/76/2
f 86/127/24 58/83/24 49/69/24
f 44/59/25 63/90/25 27/41/25
f 2/4/26 59/85/26 86/126/26
f 45/60/27 57/80/27 53/74/27
f 2/5/28 61/88/28 60/86/28
f 45/61/25 54/76/25 44/59/25
f 51/72/29 63/90/29 62/89/29
f 49/69/30 57/81/30 48/65/30
f 50/71/28 64/91/28 61/88/28
f 52/73/31 62/89/31 64/91/31
f 68/96/2 65/92/2 66/93/2
f 69/98/32 68/97/32 66/94/32
f 72/105/33 67/95/33 68/96/33
f 70/101/34 72/106/34 68/97/34
f 13/27/2 65/92/2 67/95/2
f 73/107/33 67/95/33 71/104/33
f 74/108/1 77/112/1 75/109/1
f 77/113/35 78/115/35 75/110/35
f 76/111/9 82/122/9 77/112/9
f 82/121/36 79/116/36 77/113/36
f 74/108/1 84/124/1 76/111/1
f 76/111/9 85/125/9 81/120/9
f 72/105/37 81/120/37 71/104/37
f 65/92/38 83/123/38 74/108/38
f 66/93/38 74/108/38 75/109/38
f 13/27/39 83/123/39 12/26/39
f 70/102/40 78/114/40 79/117/40
f 71/104/37 85/125/37 73/107/37
f 1/1/41 79/117/41 80/118/41
f 73/107/42 84/124/42 13/27/42
f 66/94/43 78/115/43 69/98/43
f 72/106/44 80/119/44 82/121/44
f 69/100/45 49/70/45 70/103/45
f 70/103/46 86/128/46 1/3/46
f 49/70/47 88/130/47 87/129/47
f 89/131/48 49/70/48 87/129/48
f 70/103/49 89/131/49 87/129/49
f 48/67/50 69/100/50 88/130/50
f 1/3/6 86/128/6 89/131/6
f 70/103/1 88/130/1 69/100/1
f 92/134/6 91/133/6 90/132/6
f 96/138/50 94/136/50 95/137/50
f 90/132/2 94/136/2 92/134/2
f 92/134/12 97/139/12 93/135/12
f 91/133/18 95/137/18 90/132/18
f 93/135/1 96/138/1 91/133/1
f 71/104/1 4/8/1 6/13/1
f 2/5/2 5/10/2 3/7/2
f 1/2/51 8/19/51 7/16/51
f 72/106/52 6/14/52 8/19/52
f 7/16/53 5/11/53 2/4/53
f 6/15/6 4/9/6 3/6/6
f 6/15/6 5/12/6 7/17/6
f 71/104/1 73/107/1 10/22/1
f 4/9/6 10/23/6 9/20/6
f 3/7/2 9/21/2 52/73/2
f 10/23/6 41/56/6 11/24/6
f 73/107/7 16/30/7 41/55/7
f 73/107/8 13/27/8 15/29/8
f 12/26/7 14/28/7 15/29/7
f 15/29/9 18/32/9 19/33/9
f 14/28/1 17/31/1 18/32/1
f 18/32/10 21/35/10 43/58/10
f 17/31/11 20/34/11 21/35/11
f 21/35/12 23/37/12 24/38/12
f 20/34/12 22/36/12 23/37/12
f 24/38/12 26/40/12 25/39/12
f 9/21/13 11/25/13 30/44/13
f 52/73/14 30/44/14 29/43/14
f 51/72/13 29/43/13 28/42/13
f 30/44/15 33/47/15 32/46/15
f 29/43/2 32/46/2 31/45/2
f 32/46/16 33/47/16 42/57/16
f 32/46/17 35/49/17 34/48/17
f 35/49/12 42/57/12 38/52/12
f 35/49/12 37/51/12 36/50/12
f 42/57/12 39/53/12 40/54/12
f 30/44/18 11/25/18 41/56/18
f 16/30/6 19/33/6 33/47/6
f 33/47/6 19/33/6 43/58/6
f 43/58/12 25/39/12 39/53/12
f 46/62/1 47/64/1 45/61/1
f 49/68/19 48/66/19 45/60/19
f 50/71/20 2/5/20 47/64/20
f 2/4/54 86/126/54 49/68/54
f 51/72/20 52/73/20 50/71/20
f 27/41/1 51/72/1 46/62/1
f 53/75/2 55/78/2 56/79/2
f 53/74/22 57/80/22 58/82/22
f 55/78/15 60/86/15 61/88/15
f 58/82/55 59/85/55 60/87/55
f 61/88/15 64/91/15 62/89/15
f 56/79/2 62/89/2 63/90/2
f 86/127/56 59/84/56 58/83/56
f 44/59/25 54/76/25 63/90/25
f 2/4/57 60/87/57 59/85/57
f 45/60/58 48/66/58 57/80/58
f 2/5/28 50/71/28 61/88/28
f 45/61/25 53/75/25 54/76/25
f 51/72/29 27/41/29 63/90/29
f 49/69/30 58/83/30 57/81/30
f 50/71/28 52/73/28 64/91/28
f 52/73/31 51/72/31 62/89/31
f 68/96/2 67/95/2 65/92/2
f 69/98/32 70/101/32 68/97/32
f 72/105/33 71/104/33 67/95/33
f 70/101/59 1/2/59 72/106/59
f 13/27/2 12/26/2 65/92/2
f 73/107/33 13/27/33 67/95/33
f 74/108/1 76/111/1 77/112/1
f 77/113/35 79/116/35 78/115/35
f 76/111/9 81/120/9 82/122/9
f 82/121/60 80/119/60 79/116/60
f 74/108/1 83/123/1 84/124/1
f 76/111/9 84/124/9 85/125/9
f 72/105/37 82/122/37 81/120/37
f 65/92/38 12/26/38 83/123/38
f 66/93/38 65/92/38 74/108/38
f 13/27/39 84/124/39 83/123/39
f 70/102/40 69/99/40 78/114/40
f 71/104/37 81/120/37 85/125/37
f 1/1/61 70/102/61 79/117/61
f 73/107/42 85/125/42 84/124/42
f 66/94/62 75/110/62 78/115/62
f 72/106/63 1/2/63 80/119/63
f 69/100/45 48/67/45 49/70/45
f 70/103/64 49/70/64 86/128/64
f 49/70/47 48/67/47 88/130/47
f 89/131/65 86/128/65 49/70/65
f 70/103/49 1/3/49 89/131/49
f 70/103/1 87/129/1 88/130/1
f 92/134/6 93/135/6 91/133/6
f 96/138/50 97/139/50 94/136/50
f 90/132/2 95/137/2 94/136/2
f 92/134/12 94/136/12 97/139/12
f 91/133/18 96/138/18 95/137/18
f 93/135/1 97/139/1 96/138/1
